<?xml version="1.0" encoding="iso-8859-1"?>
<!-- Generator: Adobe Illustrator 19.0.0, SVG Export Plug-In . SVG Version: 6.00 Build 0)  -->
<svg version="1.1" id="Capa_1" xmlns="http://www.w3.org/2000/svg" xmlns:xlink="http://www.w3.org/1999/xlink" x="0px" y="0px"
	 viewBox="0 0 512 512" style="enable-background:new 0 0 512 512;" xml:space="preserve">
<path style="fill:#546E7A;" d="M415.344,276.885c-41.237,0-74.667,33.429-74.667,74.667v21.333c0,5.891,4.776,10.667,10.667,10.667
	c5.891,0,10.667-4.776,10.667-10.667v-21.333c0-29.455,23.878-53.333,53.333-53.333s53.333,23.878,53.333,53.333v21.333
	c0,5.891,4.776,10.667,10.667,10.667c5.891,0,10.667-4.776,10.667-10.667v-21.333C490.011,310.315,456.581,276.885,415.344,276.885z
	"/>
<path style="fill:#FFC107;" d="M330.011,362.219h170.667c5.891,0,10.667,4.776,10.667,10.667v128
	c0,5.891-4.776,10.667-10.667,10.667H330.011c-5.891,0-10.667-4.776-10.667-10.667v-128
	C319.344,366.994,324.119,362.219,330.011,362.219z"/>
<path style="fill:#455A64;" d="M298.011,500.885v-128c0.071-13.857,9.053-26.093,22.251-30.315c0.831-7.664,2.586-15.2,5.227-22.443
	c-1.826-5.58-3.252-11.284-4.267-17.067c17.488-14.505,28.744-35.168,31.445-57.728c-0.379-3.847,0.529-7.711,2.581-10.987
	c3.326-0.833,6.049-3.215,7.317-6.4c6.153-14.868,10.009-30.586,11.435-46.613c-0.001-0.87-0.108-1.737-0.32-2.581
	c-1.53-6.226-5.19-11.721-10.347-15.531v-56.555C361.001,48.75,314.583,2.332,256.667,0C198.75,2.332,152.332,48.75,150,106.667
	v56.555c-5.156,3.81-8.817,9.305-10.347,15.531c-0.212,0.844-0.319,1.711-0.32,2.581c1.424,16.035,5.28,31.76,11.435,46.635
	c0.924,3.015,3.347,5.334,6.4,6.123c1.173,0.597,3.413,3.691,3.413,11.243c2.713,22.588,14.001,43.27,31.531,57.771
	c-2.133,13.973-12.651,50.816-34.901,60.117L62.64,394.667c-24.292,8.034-42.747,27.995-48.853,52.843l-12.8,51.2
	c-1.449,5.71,2.005,11.514,7.715,12.963c0.86,0.218,1.744,0.328,2.632,0.328h288.768
	C298.743,508.451,298.035,504.686,298.011,500.885z"/>
<path style="fill:#FAFAFA;" d="M436.677,426.219c0-11.782-9.551-21.333-21.333-21.333c-11.782,0-21.333,9.551-21.333,21.333
	c0.095,7.484,4.156,14.355,10.667,18.048v13.952c0,5.891,4.776,10.667,10.667,10.667c5.891,0,10.667-4.776,10.667-10.667v-13.952
	C432.521,440.574,436.582,433.703,436.677,426.219z"/>
<path d="M500.677,511.552H330.011c-5.891,0-10.667-4.776-10.667-10.667v-128c0-5.891,4.776-10.667,10.667-10.667h170.667
	c5.891,0,10.667,4.776,10.667,10.667v128C511.344,506.776,506.568,511.552,500.677,511.552z M340.677,490.219h149.333V383.552
	H340.677V490.219z"/>
<path d="M415.344,468.885c-5.891,0-10.667-4.776-10.667-10.667v-32c0-5.891,4.776-10.667,10.667-10.667
	c5.891,0,10.667,4.776,10.667,10.667v32C426.011,464.11,421.235,468.885,415.344,468.885z"/>
<path d="M415.344,447.552c-11.782,0-21.333-9.551-21.333-21.333c0-11.782,9.551-21.333,21.333-21.333
	c11.782,0,21.333,9.551,21.333,21.333C436.677,438.001,427.126,447.552,415.344,447.552z"/>
<path d="M479.344,383.552c-5.891,0-10.667-4.776-10.667-10.667v-21.333c0-29.455-23.878-53.333-53.333-53.333
	s-53.333,23.878-53.333,53.333v21.333c0,5.891-4.776,10.667-10.667,10.667c-5.891,0-10.667-4.776-10.667-10.667v-21.333
	c0-41.237,33.429-74.667,74.667-74.667s74.667,33.429,74.667,74.667v21.333C490.011,378.776,485.235,383.552,479.344,383.552z"/>
<path d="M11.333,512c-5.891-0.002-10.665-4.779-10.664-10.67c0-0.869,0.107-1.735,0.317-2.578l12.8-51.2
	c6.094-24.863,24.55-44.843,48.853-52.885l94.677-31.552c22.251-9.301,32.661-46.144,34.901-60.117
	c-17.514-14.471-28.807-35.111-31.552-57.664c0-7.552-2.24-10.667-3.413-11.243c-3.053-0.789-5.476-3.108-6.4-6.123
	c-6.184-14.87-10.069-30.595-11.52-46.635c0.001-0.87,0.108-1.737,0.32-2.581c1.53-6.226,5.19-11.721,10.347-15.531v-56.555
	C152.332,48.75,198.75,2.332,256.667,0c65.28,0,83.029,33.472,85.099,50.027c11.072,8.171,21.568,22.272,21.568,56.64v56.555
	c5.156,3.81,8.817,9.305,10.347,15.531c0.212,0.844,0.319,1.711,0.32,2.581c-1.39,16.029-5.21,31.754-11.328,46.635
	c-1.269,3.185-3.991,5.567-7.317,6.4c-2.052,3.276-2.96,7.14-2.581,10.987c0.381,12.854-3.951,25.404-12.181,35.285l-1.6,2.133
	c-3.275,4.901-9.904,6.219-14.805,2.944c-4.901-3.275-6.219-9.904-2.944-14.805c0.683-1.003,1.493-2.133,2.389-3.285
	c5.361-6.174,8.155-14.167,7.808-22.336c-0.978-11.206,3.853-22.132,12.8-28.949c4.223-10.745,7.089-21.975,8.533-33.429
	c-0.292-0.731-0.703-1.408-1.216-2.005c-5.146,0.155-9.444-3.892-9.599-9.038c-0.012-0.401,0.002-0.803,0.041-1.202v-64
	c0-31.403-10.091-37.803-14.4-40.533c-4.052-1.98-6.885-5.808-7.595-10.261c-0.12-1.403,0.032-2.815,0.448-4.16
	c-1.451-8.448-14.251-30.379-63.787-30.379c-46.087,2.425-82.908,39.247-85.333,85.333v64c0,5.891-4.776,10.667-10.667,10.667
	c0.512,0,0.32,0.725,0,1.536c1.432,11.478,4.298,22.73,8.533,33.493c8.947,6.818,13.778,17.743,12.8,28.949
	c3.345,18.06,13.397,34.186,28.139,45.141c2.454,2.022,3.877,5.034,3.883,8.213c0,13.547-12.309,69.12-49.237,84.501l-95.403,31.829
	c-17.331,5.726-30.505,19.955-34.88,37.675l-12.8,51.2C20.531,508.647,16.249,512.004,11.333,512z"/>
<g>
</g>
<g>
</g>
<g>
</g>
<g>
</g>
<g>
</g>
<g>
</g>
<g>
</g>
<g>
</g>
<g>
</g>
<g>
</g>
<g>
</g>
<g>
</g>
<g>
</g>
<g>
</g>
<g>
</g>
</svg>
