<svg xmlns="http://www.w3.org/2000/svg" height="951pt" version="1.1" viewBox="-117 0 951 951.24851" width="951pt">
<g id="surface1">
<path d="M 358.78125 0 C 160.789062 0.21875 0.34375 160.667969 0.125 358.65625 C 0.125 551.824219 332.9375 929.972656 347.105469 945.976562 C 350.058594 949.332031 354.324219 951.25 358.800781 951.25 C 363.269531 951.25 367.53125 949.332031 370.496094 945.976562 C 384.621094 929.972656 717.441406 551.824219 717.441406 358.65625 C 717.210938 160.667969 556.765625 0.21875 358.78125 0 Z M 358.78125 911.816406 C 299.101562 842.1875 31.316406 520.726562 31.316406 358.65625 C 31.316406 177.796875 177.921875 31.191406 358.78125 31.191406 C 539.636719 31.191406 686.253906 177.796875 686.253906 358.65625 C 686.253906 520.667969 418.453125 842.171875 358.78125 911.816406 Z M 358.78125 911.816406 " style=" stroke:none;fill-rule:nonzero;fill-opacity:1;" />
<path d="M 358.78125 109.160156 C 229.59375 109.160156 124.875 213.882812 124.875 343.066406 C 124.875 472.25 229.59375 576.976562 358.78125 576.976562 C 487.960938 576.976562 592.6875 472.25 592.6875 343.066406 C 592.535156 213.949219 487.902344 109.300781 358.78125 109.160156 Z M 358.78125 545.785156 C 246.824219 545.785156 156.0625 455.027344 156.0625 343.066406 C 156.0625 231.105469 246.824219 140.34375 358.78125 140.34375 C 470.742188 140.34375 561.507812 231.105469 561.507812 343.066406 C 561.375 454.96875 470.6875 545.65625 358.78125 545.785156 Z M 358.78125 545.785156 " style=" stroke:none;fill-rule:nonzero;fill-opacity:1;" />
<path d="M 327.59375 327.476562 L 389.972656 327.476562 L 389.972656 358.65625 L 327.59375 358.65625 Z M 327.59375 327.476562 " style=" stroke:none;fill-rule:nonzero;fill-opacity:1;" />
<path d="M 405.5625 327.476562 L 436.753906 327.476562 L 436.753906 358.65625 L 405.5625 358.65625 Z M 405.5625 327.476562 " style=" stroke:none;fill-rule:nonzero;fill-opacity:1;" />
<path d="M 280.816406 327.476562 L 312.003906 327.476562 L 312.003906 358.65625 L 280.816406 358.65625 Z M 280.816406 327.476562 " style=" stroke:none;fill-rule:nonzero;fill-opacity:1;" />
</g>
</svg>