<?xml version="1.0" encoding="iso-8859-1"?>
<!-- Generator: Adobe Illustrator 19.0.0, SVG Export Plug-In . SVG Version: 6.00 Build 0)  -->
<svg version="1.1" id="Layer_1" xmlns="http://www.w3.org/2000/svg" xmlns:xlink="http://www.w3.org/1999/xlink" x="0px" y="0px"
	 viewBox="0 0 512 512" style="enable-background:new 0 0 512 512;" xml:space="preserve">
<g>
	<g>
		<path d="M294.627,115.546h-36.335l22.19-22.189c14.847-14.85,23.025-34.593,23.025-55.591c0-20.824-16.942-37.766-37.764-37.766
			c-20.825,0-37.766,16.942-37.766,37.766c0,4.904,3.974,8.879,8.879,8.879s8.879-3.976,8.879-8.879
			c0-11.032,8.975-20.007,20.007-20.007c11.031,0,20.006,8.975,20.006,20.007c0,16.255-6.33,31.538-17.825,43.033l-37.348,37.346
			c-2.539,2.539-3.298,6.359-1.924,9.677c1.373,3.317,4.613,5.482,8.203,5.482h57.773c4.905,0,8.879-3.976,8.879-8.879
			S299.532,115.546,294.627,115.546z"/>
	</g>
</g>
<g>
	<g>
		<path d="M383.168,77.644h-11.954V8.88c0.001-3.995-2.666-7.498-6.518-8.56c-3.854-1.062-7.937,0.578-9.985,4.008l-46.366,77.643
			c-1.638,2.743-1.676,6.156-0.098,8.935c1.577,2.779,4.526,4.496,7.721,4.496h37.486v29.022c0,4.904,3.974,8.879,8.879,8.879
			s8.879-3.976,8.879-8.879V95.403h11.954c4.905,0,8.879-3.976,8.879-8.879S388.073,77.644,383.168,77.644z M353.457,77.644h-21.842
			l21.842-36.576V77.644z"/>
	</g>
</g>
<g>
	<g>
		<path d="M487.355,164.91c-1.442-3.167-4.601-5.2-8.08-5.2h-66.374c-4.905,0-8.879,3.976-8.879,8.879s3.974,8.879,8.879,8.879
			h46.876l-16.691,19.179c-18.25,20.971-28.301,47.83-28.301,75.629v11.858c0,4.904,3.974,8.879,8.879,8.879
			s8.879-3.976,8.879-8.879v-11.858c0-23.515,8.502-46.233,23.938-63.97l29.491-33.888
			C488.257,171.794,488.798,168.077,487.355,164.91z"/>
	</g>
</g>
<g>
	<g>
		<path d="M450.63,86.713c-3.469-3.468-9.09-3.468-12.559,0L318.856,205.928c-3.468,3.468-3.468,9.09,0,12.557
			c1.734,1.733,4.008,2.601,6.279,2.601c2.272,0,4.545-0.867,6.279-2.601L450.63,99.269C454.098,95.802,454.098,90.18,450.63,86.713
			z"/>
	</g>
</g>
<g>
	<g>
		<path d="M500.951,417.699l-121.846-81.22c-3.062-2.042-7.066-1.982-10.069,0.149l-61.932,44.021
			c-29.598-17.562-62.643-44.014-93.652-75.023c-31.001-31.001-57.453-64.047-75.023-93.652l44.03-61.919
			c2.135-3.001,2.195-7.008,0.152-10.072L111.934,33.971c-0.085-0.147-0.175-0.291-0.271-0.433l-10.275-15.401
			c-2.445-3.664-7.203-4.982-11.187-3.097L49.577,34.275c-1.997,0.946-3.57,2.602-4.411,4.644L7.76,129.769
			c-1.058,2.57-0.851,5.487,0.559,7.884l23.774,40.409c0.672,1.158,1.357,2.304,2.051,3.461
			c68.853,115.466,187.951,234.563,303.395,303.403c1.16,0.696,2.323,1.392,3.45,2.048l40.452,23.799
			c1.383,0.813,2.938,1.227,4.502,1.227c1.146,0,2.294-0.221,3.381-0.669l90.84-37.416c2.042-0.841,3.696-2.413,4.642-4.408
			l19.247-40.616C505.94,424.907,504.619,420.143,500.951,417.699z M90.871,34.371l5.74,8.601c0.084,0.144,0.174,0.288,0.269,0.429
			l67.565,101.347l-17.406,24.48L66.386,45.965L90.871,34.371z M386.639,493.23l-36.68-21.58c-1.095-0.638-2.19-1.295-3.307-1.964
			C233.531,402.23,116.851,285.549,49.394,172.427c-0.004-0.006-0.007-0.013-0.012-0.019c-0.655-1.092-1.301-2.174-1.961-3.309
			L25.86,132.451l29.311-71.189l80.813,123.509l-15.34,21.572c-1.998,2.812-2.189,6.528-0.485,9.528
			c18.256,32.168,46.929,68.503,80.736,102.312c33.817,33.816,70.154,62.49,102.315,80.738c3,1.704,6.716,1.513,9.528-0.487
			l21.573-15.335l123.51,80.81L386.639,493.23z M473.118,452.697l-123.262-80.648l24.483-17.404l110.376,73.575L473.118,452.697z"/>
	</g>
</g>
<g>
</g>
<g>
</g>
<g>
</g>
<g>
</g>
<g>
</g>
<g>
</g>
<g>
</g>
<g>
</g>
<g>
</g>
<g>
</g>
<g>
</g>
<g>
</g>
<g>
</g>
<g>
</g>
<g>
</g>
</svg>
